<?xml version="1.0" standalone="no"?>
<!DOCTYPE svg PUBLIC "-//W3C//DTD SVG 20010904//EN"
 "http://www.w3.org/TR/2001/REC-SVG-20010904/DTD/svg10.dtd">
<svg version="1.0" xmlns="http://www.w3.org/2000/svg"
 width="35.000000pt" height="35.000000pt" viewBox="0 0 35.000000 35.000000"
 preserveAspectRatio="xMidYMid meet">
<metadata>
Created by potrace 1.16, written by Peter Selinger 2001-2019
</metadata>
<g transform="translate(0.000000,35.000000) scale(0.005469,-0.005469)"
fill="#000000" stroke="none">
<path d="M1254 4660 c-66 -27 -84 -117 -35 -172 l29 -33 255 -3 255 -3 4 -27
c4 -23 153 -542 492 -1717 41 -143 95 -331 120 -417 24 -86 50 -167 56 -178
27 -51 3 -50 1115 -50 1121 0 1071 -2 1109 52 21 29 20 82 0 114 -38 56 12 54
-1066 54 l-993 0 -39 138 c-21 75 -41 145 -44 154 -4 17 53 18 1018 20 l1022
3 30 34 c28 32 30 38 24 90 -5 53 4 85 182 619 144 432 191 563 205 568 23 7
57 62 57 92 0 13 -7 36 -15 52 -33 64 68 60 -1518 60 l-1443 0 -72 253 c-63
222 -75 255 -102 280 l-30 27 -298 -1 c-163 0 -307 -4 -318 -9z m1455 -952
c12 -101 24 -198 28 -216 l5 -32 -243 2 -243 3 -58 200 c-31 110 -57 206 -58
213 0 9 61 12 273 12 l274 0 22 -182z m631 -33 l0 -215 -195 0 c-152 0 -195 3
-195 13 0 7 -11 100 -25 207 -14 107 -25 198 -25 203 0 4 99 7 220 7 l220 0 0
-215z m647 183 c-3 -18 -16 -115 -29 -215 l-22 -183 -193 0 -193 0 0 215 0
215 221 0 221 0 -5 -32z m690 -183 l-72 -215 -227 0 c-126 0 -228 3 -228 8 0
4 11 95 25 202 14 107 25 201 25 208 0 9 62 12 274 12 l274 0 -71 -215z
m-1912 -437 c4 -13 55 -398 55 -418 0 -6 -69 -10 -188 -10 l-188 0 -61 213
c-33 116 -59 215 -56 220 2 4 101 7 219 7 163 0 216 -3 219 -12z m573 -213 l2
-216 -152 3 -153 3 -8 60 c-29 227 -45 361 -42 365 2 3 81 4 177 3 l173 -2 3
-216z m565 218 c2 -5 -8 -104 -22 -220 l-26 -213 -152 0 -153 0 0 213 c0 118
3 217 7 220 9 10 341 9 346 0z m627 0 c0 -5 -32 -104 -71 -220 l-71 -213 -159
0 c-121 0 -159 3 -159 13 0 6 11 102 25 212 14 110 25 203 25 208 0 4 92 7
205 7 113 0 205 -3 205 -7z"/>
<path d="M2829 1911 c-89 -18 -174 -95 -209 -189 -41 -108 -18 -214 63 -297
173 -176 435 -93 488 154 18 87 -18 190 -94 263 -54 51 -173 85 -248 69z"/>
<path d="M4128 1909 c-85 -20 -175 -105 -204 -191 -60 -181 64 -368 256 -385
150 -13 287 112 298 273 4 62 1 79 -23 133 -57 127 -200 201 -327 170z"/>
</g>
</svg>
